# This file uses centimeters as units for non-parametric coordinates.

mtllib cojinTopuv.mtl
g default
v 2.617470 5.188232 1.344582
v 2.617470 4.859227 1.208304
v 2.617470 4.530223 1.344582
v 2.617470 4.393945 1.673587
v 2.617470 4.530223 2.002591
v 2.617470 4.859227 2.138869
v 2.617470 5.188232 2.002591
v 2.617470 5.324510 1.673587
v -0.826468 5.188232 1.344582
v -0.826468 4.859227 1.208304
v -0.826468 4.530223 1.344582
v -0.826468 4.393945 1.673587
v -0.826468 4.530223 2.002591
v -0.826468 4.859227 2.138869
v -0.826468 5.188232 2.002591
v -0.826468 5.324510 1.673587
v 2.617470 4.859227 1.673587
v -0.826468 4.859227 1.673587
v -0.768685 4.859227 2.138869
v -0.768685 4.530223 2.002591
v -0.768685 4.393945 1.673587
v -0.768685 4.530223 1.344582
v -0.768685 4.859227 1.208304
v -0.768685 5.188232 1.344582
v -0.768685 5.324510 1.673587
v -0.768685 5.188232 2.002591
v 2.580736 4.859227 2.138869
v 2.580736 4.530223 2.002591
v 2.580736 4.393945 1.673587
v 2.580736 4.530223 1.344582
v 2.580736 4.859227 1.208304
v 2.580736 5.188232 1.344582
v 2.580736 5.324510 1.673587
v 2.580736 5.188232 2.002591
vt 0.175048 0.678794
vt 0.140889 0.678800
vt 0.140846 0.675258
vt 0.175092 0.675257
vt 0.106561 0.678805
vt 0.106559 0.675264
vt 0.615534 0.680352
vt 0.581374 0.680358
vt 0.581332 0.676816
vt 0.615578 0.676815
vt 0.547047 0.680363
vt 0.547045 0.676822
vt 0.701795 0.680339
vt 0.667636 0.680345
vt 0.667593 0.676803
vt 0.701840 0.676802
vt 0.633309 0.680350
vt 0.633307 0.676809
vt 0.934886 0.674520
vt 0.900726 0.674526
vt 0.900684 0.670984
vt 0.934930 0.670983
vt 0.866399 0.674531
vt 0.866397 0.670990
vt 0.804934 0.785731
vt 0.770632 0.784787
vt 0.788922 0.743853
vt 0.829856 0.762144
vt 0.830800 0.727842
vt 0.807213 0.702919
vt 0.772911 0.701975
vt 0.747989 0.725562
vt 0.747045 0.759864
vt 0.411272 0.694260
vt 0.445464 0.691354
vt 0.431876 0.734080
vt 0.471696 0.713476
vt 0.474602 0.747667
vt 0.452480 0.773899
vt 0.418289 0.776805
vt 0.392057 0.754683
vt 0.389151 0.720492
vt 0.701906 0.353886
vt 0.667580 0.353882
vt 0.667581 0.348313
vt 0.701905 0.348313
vt 0.581318 0.353895
vt 0.546991 0.353893
vt 0.546992 0.348320
vt 0.581319 0.348326
vt 0.615644 0.353899
vt 0.615643 0.348325
vt 0.140833 0.352337
vt 0.106505 0.352336
vt 0.106507 0.346762
vt 0.140833 0.346768
vt 0.175159 0.352341
vt 0.175157 0.346767
vt 0.900670 0.348062
vt 0.866343 0.348061
vt 0.866344 0.342487
vt 0.900671 0.342493
vt 0.934996 0.348066
vt 0.934995 0.342493
vt 0.633253 0.353881
vt 0.633254 0.348307
vn 0.978548 0.145676 -0.145676
vn 0.978549 0.000000 -0.206017
vn 0.000000 0.000000 -1.000000
vn 0.000000 0.707107 -0.707107
vn 0.978548 -0.145676 -0.145676
vn 0.000000 -0.707107 -0.707106
vn 0.978548 -0.206018 0.000000
vn 0.000000 -1.000000 -0.000000
vn 0.978548 -0.145676 0.145676
vn 0.000000 -0.707107 0.707107
vn 0.978548 -0.000000 0.206017
vn 0.000000 0.000000 1.000000
vn 0.978549 0.145676 0.145676
vn 0.000000 0.707106 0.707107
vn 0.978548 0.206018 0.000000
vn 0.000000 1.000000 0.000000
vn 1.000000 -0.000000 0.000000
vn -0.949297 0.222300 -0.222300
vn -0.949297 0.000000 -0.314379
vn -1.000000 0.000000 0.000000
vn -0.949297 -0.222300 -0.222300
vn -0.949297 -0.314380 0.000000
vn -0.949297 -0.222300 0.222300
vn -0.949297 0.000000 0.314380
vn -0.949297 0.222300 0.222300
vn -0.949298 0.314379 -0.000000
vn 0.000000 -0.707107 0.707107
vn 0.000000 0.000000 1.000000
vn 0.000000 -1.000000 -0.000000
vn 0.000000 -0.707107 -0.707106
vn 0.000000 0.000000 -1.000000
vn 0.000000 0.707107 -0.707107
vn 0.000000 1.000000 0.000000
vn 0.000000 0.707106 0.707107
s 1
g initialShadingGroup polySurface9
f 1/1/1 2/2/2 31/3/3 32/4/4
f 2/2/2 3/5/5 30/6/6 31/3/3
f 3/7/5 4/8/7 29/9/8 30/10/6
f 4/8/7 5/11/9 28/12/10 29/9/8
f 5/13/9 6/14/11 27/15/12 28/16/10
f 6/14/11 7/17/13 34/18/14 27/15/12
f 7/19/13 8/20/15 33/21/16 34/22/14
f 8/20/15 1/23/1 32/24/4 33/21/16
f 2/25/2 1/26/1 17/27/17
f 3/28/5 2/25/2 17/27/17
f 4/29/7 3/28/5 17/27/17
f 5/30/9 4/29/7 17/27/17
f 6/31/11 5/30/9 17/27/17
f 7/32/13 6/31/11 17/27/17
f 8/33/15 7/32/13 17/27/17
f 1/26/1 8/33/15 17/27/17
f 9/34/18 10/35/19 18/36/20
f 10/35/19 11/37/21 18/36/20
f 11/37/21 12/38/22 18/36/20
f 12/38/22 13/39/23 18/36/20
f 13/39/23 14/40/24 18/36/20
f 14/40/24 15/41/25 18/36/20
f 15/41/25 16/42/26 18/36/20
f 16/42/26 9/34/18 18/36/20
f 20/43/27 19/44/28 14/45/24 13/46/23
f 21/47/29 20/48/27 13/49/23 12/50/22
f 22/51/30 21/47/29 12/50/22 11/52/21
f 23/53/31 22/54/30 11/55/21 10/56/19
f 24/57/32 23/53/31 10/56/19 9/58/18
f 25/59/33 24/60/32 9/61/18 16/62/26
f 26/63/34 25/59/33 16/62/26 15/64/25
f 19/44/28 26/65/34 15/66/25 14/45/24
f 28/16/10 27/15/12 19/44/28 20/43/27
f 29/9/8 28/12/10 20/48/27 21/47/29
f 30/10/6 29/9/8 21/47/29 22/51/30
f 31/3/3 30/6/6 22/54/30 23/53/31
f 32/4/4 31/3/3 23/53/31 24/57/32
f 33/21/16 32/24/4 24/60/32 25/59/33
f 34/22/14 33/21/16 25/59/33 26/63/34
f 27/15/12 34/18/14 26/65/34 19/44/28
g default
v 2.617470 5.188232 -2.014314
v 2.617470 4.859227 -2.150592
v 2.617470 4.530223 -2.014314
v 2.617470 4.393945 -1.685310
v 2.617470 4.530223 -1.356305
v 2.617470 4.859227 -1.220027
v 2.617470 5.188232 -1.356305
v 2.617470 5.324510 -1.685310
v -0.826468 5.188232 -2.014314
v -0.826468 4.859227 -2.150592
v -0.826468 4.530223 -2.014314
v -0.826468 4.393945 -1.685310
v -0.826468 4.530223 -1.356305
v -0.826468 4.859227 -1.220027
v -0.826468 5.188232 -1.356305
v -0.826468 5.324510 -1.685310
v 2.617470 4.859227 -1.685310
v -0.826468 4.859227 -1.685310
v -0.778102 4.530223 -1.356305
v -0.778102 4.393945 -1.685310
v -0.778102 4.530223 -2.014314
v -0.778102 4.859227 -2.150592
v -0.778102 5.188232 -2.014314
v -0.778102 5.324510 -1.685310
v -0.778102 5.188232 -1.356305
v -0.778102 4.859227 -1.220027
v 2.541066 4.530223 -1.356305
v 2.541066 4.393945 -1.685310
v 2.541066 4.530223 -2.014314
v 2.541066 4.859227 -2.150592
v 2.541066 5.188232 -2.014314
v 2.541066 5.324510 -1.685310
v 2.541066 5.188232 -1.356305
v 2.541066 4.859227 -1.220027
vt 0.855963 0.693169
vt 0.821805 0.693174
vt 0.821752 0.685808
vt 0.856019 0.685808
vt 0.787479 0.693180
vt 0.787476 0.685814
vt 0.072266 0.680936
vt 0.038107 0.680942
vt 0.038055 0.673576
vt 0.072321 0.673576
vt 0.003782 0.680948
vt 0.003778 0.673582
vt 0.780713 0.680789
vt 0.746555 0.680795
vt 0.746502 0.673429
vt 0.780769 0.673429
vt 0.712229 0.680800
vt 0.712226 0.673434
vt 0.252131 0.679004
vt 0.217973 0.679010
vt 0.217920 0.671644
vt 0.252187 0.671644
vt 0.183647 0.679015
vt 0.183644 0.671649
vt 0.922104 0.764700
vt 0.890974 0.779135
vt 0.889114 0.734340
vt 0.933909 0.732480
vt 0.919474 0.701350
vt 0.887254 0.689545
vt 0.856124 0.703980
vt 0.844319 0.736200
vt 0.858754 0.767330
vt 0.298484 0.755983
vt 0.293712 0.722002
vt 0.337116 0.733233
vt 0.314366 0.694600
vt 0.348347 0.689829
vt 0.375748 0.710483
vt 0.380520 0.744463
vt 0.359866 0.771865
vt 0.325886 0.776637
vt 0.038051 0.353584
vt 0.003725 0.353584
vt 0.003727 0.348918
vt 0.038052 0.348924
vt 0.072377 0.353590
vt 0.072375 0.348923
vt 0.821749 0.365817
vt 0.787422 0.365817
vt 0.787424 0.361150
vt 0.821750 0.361156
vt 0.856074 0.365822
vt 0.856072 0.361156
vt 0.217917 0.351652
vt 0.183591 0.351652
vt 0.183593 0.346985
vt 0.217918 0.346992
vt 0.252243 0.351657
vt 0.252241 0.346991
vt 0.746499 0.353437
vt 0.712173 0.353436
vt 0.712175 0.348770
vt 0.746500 0.348776
vt 0.780825 0.353442
vt 0.780823 0.348776
vn 0.916025 0.283636 -0.283636
vn 0.916025 0.000000 -0.401122
vn 0.000000 -0.000000 -1.000000
vn 0.000000 0.707106 -0.707107
vn 0.916025 -0.283636 -0.283636
vn 0.000000 -0.707107 -0.707107
vn 0.916025 -0.401122 0.000000
vn 0.000000 -1.000000 0.000000
vn 0.916025 -0.283636 0.283635
vn 0.000000 -0.707107 0.707106
vn 0.916025 -0.000000 0.401121
vn 0.000000 0.000000 1.000000
vn 0.916025 0.283636 0.283636
vn 0.000000 0.707107 0.707107
vn 0.916025 0.401122 0.000000
vn 0.000000 1.000000 -0.000000
vn 1.000000 0.000000 0.000000
vn -0.963662 0.188887 -0.188887
vn -0.963661 -0.000000 -0.267127
vn -1.000000 0.000000 0.000000
vn -0.963662 -0.188887 -0.188887
vn -0.963662 -0.267126 0.000000
vn -0.963662 -0.188887 0.188887
vn -0.963662 -0.000000 0.267126
vn -0.963662 0.188887 0.188887
vn -0.963662 0.267126 0.000000
vn 0.000000 -1.000000 0.000000
vn 0.000000 -0.707107 0.707106
vn 0.000000 -0.707107 -0.707107
vn 0.000000 -0.000000 -1.000000
vn 0.000000 0.707106 -0.707107
vn 0.000000 1.000000 -0.000000
vn 0.000000 0.707107 0.707107
vn 0.000000 0.000000 1.000000
s 1
g initialShadingGroup polySurface10
f 35/67/35 36/68/36 64/69/37 65/70/38
f 36/68/36 37/71/39 63/72/40 64/69/37
f 37/73/39 38/74/41 62/75/42 63/76/40
f 38/74/41 39/77/43 61/78/44 62/75/42
f 39/79/43 40/80/45 68/81/46 61/82/44
f 40/80/45 41/83/47 67/84/48 68/81/46
f 41/85/47 42/86/49 66/87/50 67/88/48
f 42/86/49 35/89/35 65/90/38 66/87/50
f 36/91/36 35/92/35 51/93/51
f 37/94/39 36/91/36 51/93/51
f 38/95/41 37/94/39 51/93/51
f 39/96/43 38/95/41 51/93/51
f 40/97/45 39/96/43 51/93/51
f 41/98/47 40/97/45 51/93/51
f 42/99/49 41/98/47 51/93/51
f 35/92/35 42/99/49 51/93/51
f 43/100/52 44/101/53 52/102/54
f 44/101/53 45/103/55 52/102/54
f 45/103/55 46/104/56 52/102/54
f 46/104/56 47/105/57 52/102/54
f 47/105/57 48/106/58 52/102/54
f 48/106/58 49/107/59 52/102/54
f 49/107/59 50/108/60 52/102/54
f 50/108/60 43/100/52 52/102/54
f 54/109/61 53/110/62 47/111/57 46/112/56
f 55/113/63 54/109/61 46/112/56 45/114/55
f 56/115/64 55/116/63 45/117/55 44/118/53
f 57/119/65 56/115/64 44/118/53 43/120/52
f 58/121/66 57/122/65 43/123/52 50/124/60
f 59/125/67 58/121/66 50/124/60 49/126/59
f 60/127/68 59/128/67 49/129/59 48/130/58
f 53/131/62 60/127/68 48/130/58 47/132/57
f 62/75/42 61/78/44 53/110/62 54/109/61
f 63/76/40 62/75/42 54/109/61 55/113/63
f 64/69/37 63/72/40 55/116/63 56/115/64
f 65/70/38 64/69/37 56/115/64 57/119/65
f 66/87/50 65/90/38 57/122/65 58/121/66
f 67/88/48 66/87/50 58/121/66 59/125/67
f 68/81/46 67/84/48 59/128/67 60/127/68
f 61/82/44 68/81/46 60/127/68 53/131/62
g default
v 2.478446 7.162250 1.587701
v 2.478446 7.054375 1.695576
v 2.586320 7.054375 1.587701
v 1.507467 7.162250 1.587701
v 1.507467 7.054375 1.695576
v 2.586320 4.952349 1.587701
v 2.478446 4.952349 1.695576
v 2.478446 4.844474 1.587701
v 1.507467 4.952349 1.695576
v 1.507467 4.844474 1.587701
v 2.586320 4.952349 -1.587701
v 2.478446 4.844474 -1.587701
v 2.478446 4.952349 -1.695576
v 1.507467 4.844474 -1.587701
v 1.507467 4.952349 -1.695576
v 2.586320 7.054375 -1.587701
v 2.478446 7.054375 -1.695576
v 2.478446 7.162250 -1.587701
v 1.507467 7.162250 -1.587701
v 1.507467 7.054375 -1.695576
v -0.696957 7.162250 1.587701
v -0.804831 7.054375 1.587701
v -0.696957 7.054375 1.695576
v -0.696957 4.952349 1.695576
v -0.804831 4.952349 1.587701
v -0.696957 4.844474 1.587701
v -0.696957 4.844474 -1.587701
v -0.804831 4.952349 -1.587701
v -0.696957 4.952349 -1.695576
v -0.696957 7.054375 -1.695576
v -0.804831 7.054375 -1.587701
v -0.696957 7.162250 -1.587701
v 0.392776 7.054375 -1.695576
v 0.392776 7.162250 -1.587701
v 0.392776 7.162250 1.587701
v 0.392776 7.054375 1.695576
v 0.392776 4.952349 1.695576
v 0.392776 4.844474 1.587701
v 0.392776 4.844474 -1.587701
v 0.392776 4.952349 -1.695576
vt 0.304724 0.364403
vt 0.319369 0.364750
vt 0.319495 0.671122
vt 0.304878 0.671476
vt 0.004216 0.339680
vt 0.004162 0.325006
vt 0.097656 0.324920
vt 0.097670 0.339596
vt 0.318832 0.350141
vt 0.522595 0.350120
vt 0.522060 0.364727
vt 0.204861 0.324941
vt 0.204846 0.339600
vt 0.536693 0.364381
vt 0.536543 0.671259
vt 0.521913 0.670898
vt 0.321242 0.018754
vt 0.321258 0.003968
vt 0.415328 0.004077
vt 0.415302 0.018817
vt 0.522837 0.004371
vt 0.522800 0.019072
vt 0.522417 0.685477
vt 0.319161 0.685160
vt 0.321733 0.339625
vt 0.321679 0.324950
vt 0.415176 0.324864
vt 0.415186 0.339540
vt 0.522377 0.324885
vt 0.522364 0.339544
vt 0.003725 0.018809
vt 0.003741 0.004024
vt 0.097811 0.004132
vt 0.097784 0.018873
vt 0.205320 0.004427
vt 0.205283 0.019128
vt 0.309642 0.325157
vt 0.309583 0.339835
vt 0.649851 0.325982
vt 0.635237 0.326336
vt 0.635088 0.019264
vt 0.649731 0.019612
vt 0.649516 0.340031
vt 0.852273 0.325763
vt 0.852776 0.340344
vt 0.627870 0.004628
vt 0.627811 0.019326
vt 0.866903 0.326123
vt 0.852417 0.019592
vt 0.867049 0.019246
vt 0.627160 0.325101
vt 0.627101 0.339779
vt 0.852952 0.004985
vt 0.649196 0.005003
vt 0.310353 0.004684
vt 0.310294 0.019382
vt 0.080811 0.995070
vt 0.080810 0.901506
vt 0.283362 0.901506
vt 0.283362 0.995070
vt 0.534144 0.996032
vt 0.534144 0.902468
vt 0.736695 0.902468
vt 0.736695 0.996032
vt 0.283362 0.794094
vt 0.080810 0.794095
vt 0.080810 0.689088
vt 0.283362 0.689087
vt 0.736695 0.795056
vt 0.534144 0.795056
vt 0.534144 0.690049
vt 0.736695 0.690049
vn 0.097502 0.994766 0.030572
vn 0.998356 0.047717 0.031768
vn 0.998356 0.047717 -0.031768
vn 0.097502 0.994766 -0.030572
vn 0.096499 0.045448 0.994295
vn 0.000000 0.999461 0.032838
vn 0.000000 0.048756 0.998811
vn 0.096499 -0.045448 0.994295
vn 0.998356 -0.047717 0.031768
vn 0.000000 0.999461 0.032838
vn 0.000000 0.048756 0.998811
vn 0.097502 -0.994766 0.030572
vn 0.097502 -0.994766 -0.030572
vn 0.998356 -0.047717 -0.031768
vn 0.000000 -0.048756 0.998811
vn 0.000000 -0.999461 0.032838
vn 0.000000 -0.048756 0.998811
vn 0.000000 -0.999461 0.032838
vn 0.096499 -0.045448 -0.994295
vn 0.096499 0.045448 -0.994295
vn 0.000000 -0.999461 -0.032838
vn 0.000000 -0.048756 -0.998811
vn 0.000000 -0.999461 -0.032838
vn 0.000000 -0.048756 -0.998811
vn 0.000000 0.048756 -0.998811
vn 0.000000 0.999461 -0.032838
vn 0.000000 0.048756 -0.998811
vn 0.000000 0.999461 -0.032838
vn -0.087893 0.995653 0.030809
vn -0.086977 0.045795 0.995157
vn -0.998356 0.047717 0.031768
vn -0.087893 0.995653 -0.030809
vn -0.998356 0.047717 -0.031768
vn -0.998356 -0.047717 0.031768
vn -0.086977 -0.045795 0.995157
vn -0.087893 -0.995653 0.030810
vn -0.998356 -0.047717 -0.031768
vn -0.087893 -0.995653 -0.030810
vn -0.086977 -0.045795 -0.995157
vn -0.086977 0.045795 -0.995157
s 1
g initialShadingGroup pCylinder4
f 69/133/69 71/134/70 84/135/71 86/136/72
f 70/137/73 69/138/69 72/139/74 73/140/75
f 71/134/70 70/141/73 75/142/76 74/143/77
f 73/140/75 72/139/74 103/144/78 104/145/79
f 74/143/77 76/146/80 80/147/81 79/148/82
f 76/149/80 75/150/76 77/151/83 78/152/84
f 78/152/84 77/151/83 105/153/85 106/154/86
f 79/148/82 81/155/87 85/156/88 84/135/71
f 81/157/87 80/158/81 82/159/89 83/160/90
f 83/160/90 82/159/89 107/161/91 108/162/92
f 86/163/72 85/164/88 88/165/93 87/166/94
f 87/166/94 88/165/93 101/167/95 102/168/96
f 89/169/97 91/170/98 104/145/79 103/144/78
f 90/171/99 89/172/97 100/173/100 99/174/101
f 91/175/98 90/171/99 93/176/102 92/177/103
f 92/178/103 94/179/104 106/154/86 105/153/85
f 94/180/104 93/176/102 96/181/105 95/182/106
f 95/183/106 97/184/107 108/162/92 107/161/91
f 97/185/107 96/181/105 99/174/101 98/186/108
f 98/187/108 100/188/100 102/168/96 101/167/95
f 70/189/73 73/190/75 77/191/83 75/192/76
f 76/149/80 78/152/84 82/159/89 80/158/81
f 81/193/87 83/194/90 88/195/93 85/196/88
f 86/163/72 87/166/94 72/139/74 69/138/69
f 90/171/99 99/174/101 96/181/105 93/176/102
f 84/135/71 71/134/70 74/143/77 79/148/82
f 102/168/96 100/188/100 89/169/97 103/144/78
f 105/197/85 104/198/79 91/199/98 92/200/103
f 107/161/91 106/154/86 94/179/104 95/183/106
f 101/201/95 108/202/92 97/203/107 98/204/108
f 87/166/94 102/168/96 103/144/78 72/139/74
f 77/191/83 73/190/75 104/198/79 105/197/85
f 82/159/89 78/152/84 106/154/86 107/161/91
f 88/195/93 83/194/90 108/202/92 101/201/95
f 69/133/69 70/141/73 71/134/70
f 74/143/77 75/142/76 76/146/80
f 79/148/82 80/147/81 81/155/87
f 84/135/71 85/156/88 86/136/72
f 89/172/97 90/171/99 91/175/98
f 92/177/103 93/176/102 94/180/104
f 95/182/106 96/181/105 97/185/107
f 98/186/108 99/174/101 100/173/100
